<svg width="25" height="26" viewBox="0 0 25 26" fill="none" xmlns="http://www.w3.org/2000/svg">
<g clip-path="url(#clip0_22_117)">
<path d="M20.8333 5.70844C21.1096 5.70844 21.3746 5.81818 21.5699 6.01353C21.7653 6.20888 21.875 6.47383 21.875 6.7501C21.875 7.02637 21.7653 7.29132 21.5699 7.48667C21.3746 7.68202 21.1096 7.79177 20.8333 7.79177H19.7917L19.7885 7.86573L18.8167 21.4814C18.7793 22.007 18.5441 22.4989 18.1585 22.858C17.7728 23.2171 17.2655 23.4168 16.7385 23.4168H8.26042C7.73348 23.4168 7.22611 23.2171 6.84051 22.858C6.4549 22.4989 6.2197 22.007 6.18229 21.4814L5.21042 7.86677C5.20884 7.8418 5.20814 7.81679 5.20833 7.79177H4.16667C3.8904 7.79177 3.62545 7.68202 3.4301 7.48667C3.23475 7.29132 3.125 7.02637 3.125 6.7501C3.125 6.47383 3.23475 6.20888 3.4301 6.01353C3.62545 5.81818 3.8904 5.70844 4.16667 5.70844H20.8333ZM17.7052 7.79177H7.29479L8.26146 21.3334H16.7385L17.7052 7.79177ZM14.5833 2.58344C14.8596 2.58344 15.1246 2.69318 15.3199 2.88853C15.5153 3.08388 15.625 3.34883 15.625 3.6251C15.625 3.90137 15.5153 4.16632 15.3199 4.36167C15.1246 4.55702 14.8596 4.66677 14.5833 4.66677H10.4167C10.1404 4.66677 9.87545 4.55702 9.6801 4.36167C9.48475 4.16632 9.375 3.90137 9.375 3.6251C9.375 3.34883 9.48475 3.08388 9.6801 2.88853C9.87545 2.69318 10.1404 2.58344 10.4167 2.58344H14.5833Z" fill="#F70000"/>
</g>
<defs>
<clipPath id="clip0_22_117">
<rect width="25" height="25" fill="white" transform="translate(0 0.500122)"/>
</clipPath>
</defs>
</svg>
