<svg width="25" height="26" viewBox="0 0 25 26" fill="none" xmlns="http://www.w3.org/2000/svg">
<path d="M24.1514 12.6837C24.1172 12.6066 23.29 10.7716 21.4512 8.93274C19.001 6.48254 15.9062 5.18762 12.5 5.18762C9.09374 5.18762 5.99901 6.48254 3.54882 8.93274C1.70995 10.7716 0.878897 12.6095 0.848623 12.6837C0.804203 12.7836 0.78125 12.8918 0.78125 13.0011C0.78125 13.1104 0.804203 13.2186 0.848623 13.3185C0.882803 13.3956 1.70995 15.2296 3.54882 17.0685C5.99901 19.5177 9.09374 20.8126 12.5 20.8126C15.9062 20.8126 19.001 19.5177 21.4512 17.0685C23.29 15.2296 24.1172 13.3956 24.1514 13.3185C24.1958 13.2186 24.2187 13.1104 24.2187 13.0011C24.2187 12.8918 24.1958 12.7836 24.1514 12.6837ZM12.5 19.2501C9.49413 19.2501 6.86815 18.1573 4.69433 16.0031C3.80238 15.116 3.04353 14.1046 2.4414 13.0001C3.04337 11.8956 3.80223 10.8841 4.69433 9.99719C6.86815 7.8429 9.49413 6.75012 12.5 6.75012C15.5059 6.75012 18.1318 7.8429 20.3057 9.99719C21.1993 10.8839 21.9598 11.8954 22.5635 13.0001C21.8594 14.3146 18.792 19.2501 12.5 19.2501ZM12.5 8.31262C11.5729 8.31262 10.6666 8.58754 9.89576 9.10261C9.1249 9.61768 8.52409 10.3498 8.16931 11.2063C7.81452 12.0628 7.72169 13.0053 7.90256 13.9146C8.08343 14.8239 8.52987 15.6591 9.18543 16.3147C9.84099 16.9702 10.6762 17.4167 11.5855 17.5976C12.4948 17.7784 13.4373 17.6856 14.2938 17.3308C15.1503 16.976 15.8824 16.3752 16.3975 15.6044C16.9126 14.8335 17.1875 13.9272 17.1875 13.0001C17.1862 11.7573 16.6919 10.5658 15.8131 9.68699C14.9343 8.80819 13.7428 8.31391 12.5 8.31262ZM12.5 16.1251C11.8819 16.1251 11.2777 15.9418 10.7638 15.5985C10.2499 15.2551 9.84939 14.767 9.61287 14.196C9.37634 13.625 9.31446 12.9967 9.43504 12.3905C9.55562 11.7843 9.85324 11.2275 10.2903 10.7904C10.7273 10.3534 11.2841 10.0557 11.8903 9.93517C12.4965 9.81459 13.1249 9.87647 13.6959 10.113C14.2669 10.3495 14.755 10.7501 15.0983 11.264C15.4417 11.7779 15.625 12.3821 15.625 13.0001C15.625 13.8289 15.2958 14.6238 14.7097 15.2098C14.1236 15.7959 13.3288 16.1251 12.5 16.1251Z" fill="#4945FC"/>
</svg>
