<svg width="40" height="40" viewBox="0 0 40 40" fill="none" xmlns="http://www.w3.org/2000/svg">
<g id="teenyicons:lock-outline">
<path id="Vector" d="M12 17.3333V9.33334C12 7.21161 12.8429 5.17678 14.3431 3.67649C15.8434 2.1762 17.8783 1.33334 20 1.33334C22.1217 1.33334 24.1566 2.1762 25.6569 3.67649C27.1571 5.17678 28 7.21161 28 9.33334V17.3333M6.66667 17.3333H33.3333C34.0406 17.3333 34.7189 17.6143 35.219 18.1144C35.719 18.6145 36 19.2928 36 20V36C36 36.7073 35.719 37.3855 35.219 37.8856C34.7189 38.3857 34.0406 38.6667 33.3333 38.6667H6.66667C5.95942 38.6667 5.28115 38.3857 4.78105 37.8856C4.28095 37.3855 4 36.7073 4 36V20C4 19.2928 4.28095 18.6145 4.78105 18.1144C5.28115 17.6143 5.95942 17.3333 6.66667 17.3333Z" stroke="#4945FC" stroke-width="2"/>
</g>
</svg>
